<mxfile host="65bd71144e">
    <diagram id="ZhmNsqTKbH9aW1CwirQQ" name="Component Diagram">
        <mxGraphModel dx="2066" dy="1509" grid="1" gridSize="10" guides="1" tooltips="1" connect="1" arrows="1" fold="1" page="1" pageScale="1" pageWidth="850" pageHeight="1100" math="0" shadow="0">
            <root>
                <mxCell id="0"/>
                <mxCell id="1" parent="0"/>
                <mxCell id="11" style="edgeStyle=none;html=1;exitX=0.75;exitY=1;exitDx=0;exitDy=0;entryX=0.5;entryY=0;entryDx=0;entryDy=0;" edge="1" parent="1" source="2" target="3">
                    <mxGeometry relative="1" as="geometry"/>
                </mxCell>
                <mxCell id="22" style="edgeStyle=none;html=1;exitX=0.25;exitY=0;exitDx=0;exitDy=0;entryX=0.5;entryY=1;entryDx=0;entryDy=0;" edge="1" parent="1" source="2" target="21">
                    <mxGeometry relative="1" as="geometry">
                        <mxPoint x="40" y="250" as="targetPoint"/>
                    </mxGeometry>
                </mxCell>
                <mxCell id="2" value="IOHWAB" style="rounded=0;whiteSpace=wrap;html=1;" vertex="1" parent="1">
                    <mxGeometry x="-40" y="320" width="320" height="80" as="geometry"/>
                </mxCell>
                <mxCell id="3" value="PWM" style="rounded=1;whiteSpace=wrap;html=1;" vertex="1" parent="1">
                    <mxGeometry x="160" y="420" width="120" height="60" as="geometry"/>
                </mxCell>
                <mxCell id="12" style="edgeStyle=none;html=1;exitX=0.5;exitY=1;exitDx=0;exitDy=0;entryX=0.5;entryY=0;entryDx=0;entryDy=0;" edge="1" parent="1" source="4" target="5">
                    <mxGeometry relative="1" as="geometry"/>
                </mxCell>
                <mxCell id="4" value="PIO" style="rounded=0;whiteSpace=wrap;html=1;" vertex="1" parent="1">
                    <mxGeometry x="320" y="320" width="120" height="80" as="geometry"/>
                </mxCell>
                <mxCell id="5" value="WS2812" style="rounded=1;whiteSpace=wrap;html=1;" vertex="1" parent="1">
                    <mxGeometry x="320" y="420" width="120" height="60" as="geometry"/>
                </mxCell>
                <mxCell id="13" style="edgeStyle=none;html=1;exitX=0.5;exitY=0;exitDx=0;exitDy=0;entryX=0.25;entryY=1;entryDx=0;entryDy=0;" edge="1" parent="1" source="7" target="2">
                    <mxGeometry relative="1" as="geometry"/>
                </mxCell>
                <mxCell id="7" value="SPI" style="rounded=1;whiteSpace=wrap;html=1;" vertex="1" parent="1">
                    <mxGeometry x="-20" y="430" width="120" height="60" as="geometry"/>
                </mxCell>
                <mxCell id="14" style="edgeStyle=none;html=1;exitX=0.5;exitY=0;exitDx=0;exitDy=0;entryX=0.5;entryY=1;entryDx=0;entryDy=0;" edge="1" parent="1" source="8" target="7">
                    <mxGeometry relative="1" as="geometry"/>
                </mxCell>
                <mxCell id="8" value="MCP2515" style="shape=hexagon;perimeter=hexagonPerimeter2;whiteSpace=wrap;html=1;fixedSize=1;" vertex="1" parent="1">
                    <mxGeometry x="-20" y="530" width="120" height="80" as="geometry"/>
                </mxCell>
                <mxCell id="19" style="edgeStyle=none;html=1;entryX=0.75;entryY=0;entryDx=0;entryDy=0;exitX=0.3;exitY=1.038;exitDx=0;exitDy=0;exitPerimeter=0;" edge="1" parent="1" source="15" target="2">
                    <mxGeometry relative="1" as="geometry"/>
                </mxCell>
                <mxCell id="20" style="edgeStyle=none;html=1;entryX=0.342;entryY=-0.025;entryDx=0;entryDy=0;entryPerimeter=0;" edge="1" parent="1" source="15" target="4">
                    <mxGeometry relative="1" as="geometry"/>
                </mxCell>
                <mxCell id="30" style="edgeStyle=none;html=1;entryX=1;entryY=1;entryDx=0;entryDy=0;exitX=0.154;exitY=-0.05;exitDx=0;exitDy=0;exitPerimeter=0;" edge="1" parent="1" source="15" target="25">
                    <mxGeometry relative="1" as="geometry">
                        <mxPoint x="82" y="-10" as="sourcePoint"/>
                    </mxGeometry>
                </mxCell>
                <mxCell id="32" style="edgeStyle=none;html=1;entryX=1;entryY=1;entryDx=0;entryDy=0;exitX=0.379;exitY=0.025;exitDx=0;exitDy=0;exitPerimeter=0;" edge="1" parent="1" source="15" target="26">
                    <mxGeometry relative="1" as="geometry">
                        <mxPoint x="262" y="-10" as="sourcePoint"/>
                    </mxGeometry>
                </mxCell>
                <mxCell id="34" style="edgeStyle=none;html=1;entryX=1;entryY=1;entryDx=0;entryDy=0;exitX=0.604;exitY=-0.037;exitDx=0;exitDy=0;exitPerimeter=0;" edge="1" parent="1" source="15" target="27">
                    <mxGeometry relative="1" as="geometry"/>
                </mxCell>
                <mxCell id="37" style="edgeStyle=none;html=1;exitX=0.829;exitY=-0.05;exitDx=0;exitDy=0;entryX=1;entryY=1;entryDx=0;entryDy=0;exitPerimeter=0;" edge="1" parent="1" source="15" target="35">
                    <mxGeometry relative="1" as="geometry"/>
                </mxCell>
                <mxCell id="15" value="IPC" style="rounded=0;whiteSpace=wrap;html=1;" vertex="1" parent="1">
                    <mxGeometry x="-40" width="800" height="80" as="geometry"/>
                </mxCell>
                <mxCell id="24" style="edgeStyle=none;html=1;exitX=0.5;exitY=0;exitDx=0;exitDy=0;entryX=0.099;entryY=0.988;entryDx=0;entryDy=0;entryPerimeter=0;" edge="1" parent="1" source="21" target="15">
                    <mxGeometry relative="1" as="geometry"/>
                </mxCell>
                <mxCell id="21" value="CanSM" style="ellipse;whiteSpace=wrap;html=1;aspect=fixed;" vertex="1" parent="1">
                    <mxGeometry y="160" width="80" height="80" as="geometry"/>
                </mxCell>
                <mxCell id="29" style="edgeStyle=none;html=1;exitX=0;exitY=1;exitDx=0;exitDy=0;entryX=0.049;entryY=-0.025;entryDx=0;entryDy=0;entryPerimeter=0;" edge="1" parent="1" source="25" target="15">
                    <mxGeometry relative="1" as="geometry"/>
                </mxCell>
                <mxCell id="25" value="coldLedSM" style="ellipse;whiteSpace=wrap;html=1;" vertex="1" parent="1">
                    <mxGeometry x="-20" y="-150" width="120" height="80" as="geometry"/>
                </mxCell>
                <mxCell id="31" style="edgeStyle=none;html=1;exitX=0;exitY=1;exitDx=0;exitDy=0;entryX=0.273;entryY=-0.012;entryDx=0;entryDy=0;entryPerimeter=0;" edge="1" parent="1" source="26" target="15">
                    <mxGeometry relative="1" as="geometry"/>
                </mxCell>
                <mxCell id="26" value="warmLedSM" style="ellipse;whiteSpace=wrap;html=1;" vertex="1" parent="1">
                    <mxGeometry x="160" y="-150" width="120" height="80" as="geometry"/>
                </mxCell>
                <mxCell id="33" style="edgeStyle=none;html=1;exitX=0;exitY=1;exitDx=0;exitDy=0;entryX=0.5;entryY=0;entryDx=0;entryDy=0;" edge="1" parent="1" source="27" target="15">
                    <mxGeometry relative="1" as="geometry">
                        <mxPoint x="360" y="10" as="targetPoint"/>
                    </mxGeometry>
                </mxCell>
                <mxCell id="27" value="rgbLedSM" style="ellipse;whiteSpace=wrap;html=1;" vertex="1" parent="1">
                    <mxGeometry x="340" y="-150" width="120" height="80" as="geometry"/>
                </mxCell>
                <mxCell id="36" style="edgeStyle=none;html=1;exitX=0;exitY=1;exitDx=0;exitDy=0;entryX=0.72;entryY=-0.012;entryDx=0;entryDy=0;entryPerimeter=0;" edge="1" parent="1" source="35" target="15">
                    <mxGeometry relative="1" as="geometry"/>
                </mxCell>
                <mxCell id="35" value="controlLogic" style="ellipse;whiteSpace=wrap;html=1;" vertex="1" parent="1">
                    <mxGeometry x="520" y="-150" width="120" height="80" as="geometry"/>
                </mxCell>
            </root>
        </mxGraphModel>
    </diagram>
    <diagram id="7lx0eQOOkDgdt6pTazeO" name="Communication Diagram">
        <mxGraphModel dx="2066" dy="1509" grid="1" gridSize="10" guides="1" tooltips="1" connect="1" arrows="1" fold="1" page="1" pageScale="1" pageWidth="850" pageHeight="1100" math="0" shadow="0">
            <root>
                <mxCell id="0"/>
                <mxCell id="1" parent="0"/>
                <mxCell id="Z4qZfy3eQ9wOpEaa0fNu-10" style="edgeStyle=none;html=1;exitX=1;exitY=1;exitDx=0;exitDy=0;entryX=1;entryY=0;entryDx=0;entryDy=0;" edge="1" parent="1" source="kMdfGO5vN8dTaptJ_nTg-1" target="kMdfGO5vN8dTaptJ_nTg-4">
                    <mxGeometry relative="1" as="geometry"/>
                </mxCell>
                <mxCell id="Z4qZfy3eQ9wOpEaa0fNu-19" value="SM_State" style="edgeLabel;html=1;align=center;verticalAlign=middle;resizable=0;points=[];" vertex="1" connectable="0" parent="Z4qZfy3eQ9wOpEaa0fNu-10">
                    <mxGeometry x="0.229" y="5" relative="1" as="geometry">
                        <mxPoint as="offset"/>
                    </mxGeometry>
                </mxCell>
                <mxCell id="kMdfGO5vN8dTaptJ_nTg-1" value="coldLedSM" style="ellipse;whiteSpace=wrap;html=1;" vertex="1" parent="1">
                    <mxGeometry x="120" y="-840" width="120" height="80" as="geometry"/>
                </mxCell>
                <mxCell id="Z4qZfy3eQ9wOpEaa0fNu-12" style="edgeStyle=none;html=1;exitX=0;exitY=1;exitDx=0;exitDy=0;entryX=1;entryY=1;entryDx=0;entryDy=0;" edge="1" parent="1" source="kMdfGO5vN8dTaptJ_nTg-2" target="kMdfGO5vN8dTaptJ_nTg-4">
                    <mxGeometry relative="1" as="geometry"/>
                </mxCell>
                <mxCell id="Z4qZfy3eQ9wOpEaa0fNu-20" value="SM_State" style="edgeLabel;html=1;align=center;verticalAlign=middle;resizable=0;points=[];" vertex="1" connectable="0" parent="Z4qZfy3eQ9wOpEaa0fNu-12">
                    <mxGeometry x="0.2258" y="2" relative="1" as="geometry">
                        <mxPoint x="13" y="10" as="offset"/>
                    </mxGeometry>
                </mxCell>
                <mxCell id="kMdfGO5vN8dTaptJ_nTg-2" value="warmLedSM" style="ellipse;whiteSpace=wrap;html=1;" vertex="1" parent="1">
                    <mxGeometry x="400" y="-600" width="120" height="80" as="geometry"/>
                </mxCell>
                <mxCell id="Z4qZfy3eQ9wOpEaa0fNu-14" style="edgeStyle=none;html=1;exitX=0;exitY=0;exitDx=0;exitDy=0;entryX=0;entryY=1;entryDx=0;entryDy=0;" edge="1" parent="1" source="kMdfGO5vN8dTaptJ_nTg-3" target="kMdfGO5vN8dTaptJ_nTg-4">
                    <mxGeometry relative="1" as="geometry"/>
                </mxCell>
                <mxCell id="Z4qZfy3eQ9wOpEaa0fNu-22" value="SM_State" style="edgeLabel;html=1;align=center;verticalAlign=middle;resizable=0;points=[];" vertex="1" connectable="0" parent="Z4qZfy3eQ9wOpEaa0fNu-14">
                    <mxGeometry x="-0.29" y="-1" relative="1" as="geometry">
                        <mxPoint as="offset"/>
                    </mxGeometry>
                </mxCell>
                <mxCell id="kMdfGO5vN8dTaptJ_nTg-3" value="rgbLedSM" style="ellipse;whiteSpace=wrap;html=1;" vertex="1" parent="1">
                    <mxGeometry x="120" y="-360" width="120" height="80" as="geometry"/>
                </mxCell>
                <mxCell id="Z4qZfy3eQ9wOpEaa0fNu-4" style="edgeStyle=none;html=1;exitX=0;exitY=1;exitDx=0;exitDy=0;entryX=1;entryY=1;entryDx=0;entryDy=0;" edge="1" parent="1" source="kMdfGO5vN8dTaptJ_nTg-4" target="Z4qZfy3eQ9wOpEaa0fNu-1">
                    <mxGeometry relative="1" as="geometry">
                        <mxPoint x="20" y="-530" as="targetPoint"/>
                    </mxGeometry>
                </mxCell>
                <mxCell id="Z4qZfy3eQ9wOpEaa0fNu-15" value="Node_Status_Data" style="edgeLabel;html=1;align=center;verticalAlign=middle;resizable=0;points=[];" vertex="1" connectable="0" parent="Z4qZfy3eQ9wOpEaa0fNu-4">
                    <mxGeometry x="-0.2015" relative="1" as="geometry">
                        <mxPoint x="-22" y="12" as="offset"/>
                    </mxGeometry>
                </mxCell>
                <mxCell id="Z4qZfy3eQ9wOpEaa0fNu-6" style="edgeStyle=none;html=1;exitX=0;exitY=0;exitDx=0;exitDy=0;entryX=0;entryY=1;entryDx=0;entryDy=0;" edge="1" parent="1" source="kMdfGO5vN8dTaptJ_nTg-4" target="kMdfGO5vN8dTaptJ_nTg-1">
                    <mxGeometry relative="1" as="geometry">
                        <mxPoint x="100" y="-680" as="targetPoint"/>
                    </mxGeometry>
                </mxCell>
                <mxCell id="Z4qZfy3eQ9wOpEaa0fNu-18" value="PWM Duty Cycle" style="edgeLabel;html=1;align=center;verticalAlign=middle;resizable=0;points=[];" vertex="1" connectable="0" parent="Z4qZfy3eQ9wOpEaa0fNu-6">
                    <mxGeometry x="-0.4797" y="-2" relative="1" as="geometry">
                        <mxPoint x="-10" y="-44" as="offset"/>
                    </mxGeometry>
                </mxCell>
                <mxCell id="Z4qZfy3eQ9wOpEaa0fNu-11" style="edgeStyle=none;html=1;exitX=1;exitY=0;exitDx=0;exitDy=0;entryX=0;entryY=0;entryDx=0;entryDy=0;" edge="1" parent="1" source="kMdfGO5vN8dTaptJ_nTg-4" target="kMdfGO5vN8dTaptJ_nTg-2">
                    <mxGeometry relative="1" as="geometry"/>
                </mxCell>
                <mxCell id="Z4qZfy3eQ9wOpEaa0fNu-21" value="PWM Duty Cycle" style="edgeLabel;html=1;align=center;verticalAlign=middle;resizable=0;points=[];" vertex="1" connectable="0" parent="Z4qZfy3eQ9wOpEaa0fNu-11">
                    <mxGeometry x="0.2432" y="-1" relative="1" as="geometry">
                        <mxPoint x="-14" y="-13" as="offset"/>
                    </mxGeometry>
                </mxCell>
                <mxCell id="Z4qZfy3eQ9wOpEaa0fNu-13" style="edgeStyle=none;html=1;exitX=1;exitY=1;exitDx=0;exitDy=0;entryX=1;entryY=0;entryDx=0;entryDy=0;" edge="1" parent="1" source="kMdfGO5vN8dTaptJ_nTg-4" target="kMdfGO5vN8dTaptJ_nTg-3">
                    <mxGeometry relative="1" as="geometry"/>
                </mxCell>
                <mxCell id="Z4qZfy3eQ9wOpEaa0fNu-23" value="Pattern ID" style="edgeLabel;html=1;align=center;verticalAlign=middle;resizable=0;points=[];" vertex="1" connectable="0" parent="Z4qZfy3eQ9wOpEaa0fNu-13">
                    <mxGeometry x="-0.29" y="1" relative="1" as="geometry">
                        <mxPoint y="57" as="offset"/>
                    </mxGeometry>
                </mxCell>
                <mxCell id="kMdfGO5vN8dTaptJ_nTg-4" value="controlLogic" style="ellipse;whiteSpace=wrap;html=1;" vertex="1" parent="1">
                    <mxGeometry x="120" y="-600" width="120" height="80" as="geometry"/>
                </mxCell>
                <mxCell id="Z4qZfy3eQ9wOpEaa0fNu-3" style="edgeStyle=none;html=1;exitX=1;exitY=0;exitDx=0;exitDy=0;entryX=0;entryY=0;entryDx=0;entryDy=0;" edge="1" parent="1" source="Z4qZfy3eQ9wOpEaa0fNu-1" target="kMdfGO5vN8dTaptJ_nTg-4">
                    <mxGeometry relative="1" as="geometry"/>
                </mxCell>
                <mxCell id="Z4qZfy3eQ9wOpEaa0fNu-16" value="Switch_Commands" style="edgeLabel;html=1;align=center;verticalAlign=middle;resizable=0;points=[];" vertex="1" connectable="0" parent="Z4qZfy3eQ9wOpEaa0fNu-3">
                    <mxGeometry x="0.3072" y="-2" relative="1" as="geometry">
                        <mxPoint x="-32" y="-14" as="offset"/>
                    </mxGeometry>
                </mxCell>
                <mxCell id="Z4qZfy3eQ9wOpEaa0fNu-17" value="Network_Notifications" style="edgeLabel;html=1;align=center;verticalAlign=middle;resizable=0;points=[];" vertex="1" connectable="0" parent="Z4qZfy3eQ9wOpEaa0fNu-3">
                    <mxGeometry x="-0.2634" relative="1" as="geometry">
                        <mxPoint x="22" y="8" as="offset"/>
                    </mxGeometry>
                </mxCell>
                <mxCell id="Z4qZfy3eQ9wOpEaa0fNu-1" value="CanSM" style="ellipse;whiteSpace=wrap;html=1;aspect=fixed;" vertex="1" parent="1">
                    <mxGeometry x="-120" y="-600" width="80" height="80" as="geometry"/>
                </mxCell>
            </root>
        </mxGraphModel>
    </diagram>
</mxfile>